<svg height='300px' width='300px'  fill="#ffffff" xmlns="http://www.w3.org/2000/svg" xmlns:xlink="http://www.w3.org/1999/xlink" version="1.1" x="0px" y="0px" viewBox="0 0 512 512" style="enable-background:new 0 0 512 512;" xml:space="preserve"><g><g><path d="M324.697,199.647c0-37.88-30.818-68.697-68.697-68.697s-68.697,30.818-68.697,68.697S218.12,268.344,256,268.344    S324.697,237.526,324.697,199.647z"></path><path d="M256,30.05c-129.235,0-234,104.765-234,234c0,70.758,31.408,134.18,81.041,177.088v-19.836    c0-63.021,38.313-117.256,92.868-140.653c-24.746-18.405-40.809-47.863-40.809-81.003c0-55.636,45.263-100.899,100.899-100.899    s100.899,45.263,100.899,100.899c0,33.14-16.062,62.598-40.809,81.003c54.555,23.396,92.868,77.632,92.868,140.653v19.836    C458.592,398.23,490,334.809,490,264.05C490,134.816,385.235,30.05,256,30.05z"></path><path d="M256,300.546c-66.586,0-120.757,54.171-120.757,120.757v24.14c35.803,23.91,77.379,36.506,120.757,36.506    s84.954-12.597,120.757-36.506v-24.14C376.757,354.717,322.586,300.546,256,300.546z"></path></g></g></svg>