<svg height='300px' width='300px'  fill="#ffffff" xmlns="http://www.w3.org/2000/svg" viewBox="0 0 512 512" x="0px" y="0px"><g><path d="M480.971,239.029l-90.51-90.509a24,24,0,0,0-33.942,0h0a24,24,0,0,0,0,33.941L406.059,232H144a24,24,0,0,0-24,24h0a24,24,0,0,0,24,24H406.059l-49.54,49.539a24,24,0,0,0,33.942,33.941l90.51-90.51A24,24,0,0,0,480.971,239.029Z"></path><path d="M304,392a24,24,0,0,0-24,24v24H72V72H280V96a24,24,0,0,0,48,0V64a40,40,0,0,0-40-40H64A40,40,0,0,0,24,64V448a40,40,0,0,0,40,40H288a40,40,0,0,0,40-40V416A24,24,0,0,0,304,392Z"></path></g></svg>